<svg width="30" height="30" viewBox="0 0 30 30" fill="none" xmlns="http://www.w3.org/2000/svg">
<g clip-path="url(#clip0_622_2190)">
<path d="M29.5932 15.6101L28.4369 14.4539V11.5337H25.5167L21.0044 7.02212C20.6864 6.70413 20.2637 6.52899 19.8142 6.52899C19.3645 6.52899 18.9419 6.70407 18.624 7.02206L16.793 8.853L17.4423 9.50239L19.2734 7.67139C19.4179 7.5269 19.61 7.44733 19.8143 7.44733C20.0186 7.44733 20.2108 7.5269 20.3553 7.67145L24.2182 11.5338H22.4684C20.1758 11.5338 18.1814 12.8333 17.182 14.7341C15.8123 14.0204 14.1886 14.0204 12.8184 14.7343C11.819 12.8334 9.82448 11.5339 7.53183 11.5339H5.78222L9.6446 7.67145C9.78915 7.52696 9.98134 7.44739 10.1859 7.44739C10.3904 7.44739 10.5826 7.52696 10.7272 7.67151L12.5582 9.50245L13.2075 8.85305L11.3765 7.02218C11.0585 6.70419 10.6357 6.52905 10.1859 6.52905C9.73612 6.52905 9.31337 6.70413 8.99538 7.02212L4.48366 11.5338H1.56306V14.4542L0.407004 15.6101C0.00546098 16.0117 -0.108914 16.5869 0.10841 17.1115C0.325617 17.6359 0.813059 17.9617 1.38054 17.9617H1.58046C1.81577 21.039 4.39501 23.471 7.53159 23.471C10.8227 23.471 13.5002 20.7935 13.5002 17.5024C13.5002 16.8305 13.3885 16.1841 13.1829 15.5809C14.319 14.9639 15.6815 14.9638 16.8171 15.5807C16.6114 16.184 16.4997 16.8304 16.4997 17.5024C16.4997 20.7935 19.1772 23.471 22.4683 23.471C25.605 23.471 28.1842 21.039 28.4194 17.9617H28.619C29.1867 17.9617 29.6743 17.6358 29.8917 17.1111C30.1089 16.5867 29.9946 16.0115 29.5932 15.6101ZM1.56306 17.0434H1.38066C1.0963 17.0434 0.984387 16.8265 0.956848 16.7601C0.92925 16.6935 0.855012 16.4608 1.0564 16.2594L1.56312 15.7528L1.56306 17.0434ZM7.53171 22.5527C4.74687 22.5527 2.48134 20.2871 2.48134 17.5024V12.452H7.53171C10.3166 12.452 12.5821 14.7176 12.5821 17.5024C12.5821 20.2872 10.3164 22.5527 7.53171 22.5527ZM27.5187 17.5024C27.5187 20.2871 25.2531 22.5527 22.4683 22.5527C19.6835 22.5527 17.4179 20.2871 17.4179 17.5024C17.4179 14.7176 19.6835 12.452 22.4683 12.452H27.5187V17.5024ZM29.0433 16.7598C29.0158 16.8264 28.9037 17.0435 28.6191 17.0435H28.437V15.7525L28.9439 16.2595C29.1451 16.4606 29.0708 16.6933 29.0433 16.7598Z" fill="#A4ACAD"/>
<path d="M7.53133 12.8431C4.96217 12.8431 2.87207 14.9333 2.87207 17.5024C2.87207 20.0715 4.96223 22.1616 7.53133 22.1616C10.1005 22.1616 12.1906 20.0714 12.1906 17.5024C12.1906 14.9333 10.1004 12.8431 7.53133 12.8431ZM7.53133 21.2435C7.00381 21.2435 6.50178 21.1331 6.04621 20.9353L9.20271 17.7788L8.55344 17.1295L5.23234 20.4506C4.35555 19.7653 3.79023 18.699 3.79023 17.5025C3.79023 15.4396 5.46848 13.7614 7.53127 13.7614C8.05879 13.7614 8.56082 13.8718 9.01639 14.0696L4.55594 18.53L5.20521 19.1794L9.83019 14.5544C10.707 15.2397 11.2723 16.3059 11.2723 17.5025C11.2723 19.5653 9.59412 21.2435 7.53133 21.2435Z" fill="#A4ACAD"/>
<path d="M9.85659 15.8253L9.17773 16.5042L9.82701 17.1535L10.5059 16.4746L9.85659 15.8253Z" fill="#A4ACAD"/>
<path d="M22.4688 12.8431C19.8997 12.8431 17.8096 14.9333 17.8096 17.5024C17.8096 20.0715 19.8997 22.1616 22.4688 22.1616C25.0379 22.1616 27.1281 20.0714 27.1281 17.5024C27.1281 14.9332 25.038 12.8431 22.4688 12.8431ZM22.4688 21.2434C21.9413 21.2434 21.4393 21.1331 20.9837 20.9353L24.1402 17.7787L23.4909 17.1294L20.1698 20.4505C19.293 19.7652 18.7278 18.6989 18.7278 17.5024C18.7278 15.4395 20.406 13.7613 22.4688 13.7613C22.9963 13.7613 23.4984 13.8717 23.9539 14.0695L19.4935 18.5299L20.1428 19.1793L24.7678 14.5543C25.6445 15.2397 26.2098 16.3059 26.2098 17.5024C26.2099 19.5652 24.5316 21.2434 22.4688 21.2434Z" fill="#A4ACAD"/>
<path d="M24.7932 15.8262L24.1143 16.5051L24.7635 17.1544L25.4424 16.4755L24.7932 15.8262Z" fill="#A4ACAD"/>
</g>
<defs>
<clipPath id="clip0_622_2190">
<rect width="30" height="30" fill="white"/>
</clipPath>
</defs>
</svg>
