<svg width="30" height="30" viewBox="0 0 30 30" fill="none" xmlns="http://www.w3.org/2000/svg">
<g clip-path="url(#clip0_622_2206)">
<path d="M22.035 17.9127C21.9317 17.8243 21.7795 17.8243 21.6763 17.9127L20.3724 19.2166C20.2646 19.3241 20.2579 19.4922 20.3654 19.6001C20.3656 19.6003 20.3658 19.6005 20.3724 19.5943C20.4797 19.7023 20.6541 19.7031 20.7623 19.5959C20.7628 19.5953 20.7634 19.5948 20.7639 19.5943L22.065 18.3014C22.1641 18.1858 22.1506 18.0118 22.035 17.9127Z" fill="#A4ACAD"/>
<path d="M22.9037 17.0664C22.7965 16.9584 22.622 16.9576 22.5139 17.0648C22.5133 17.0654 22.5128 17.0659 22.5123 17.0664L22.3579 17.2208C22.2498 17.328 22.2491 17.5025 22.3563 17.6107C22.4085 17.6632 22.4796 17.6926 22.5536 17.6922C22.6273 17.6919 22.6978 17.6621 22.7493 17.6095L22.9037 17.4551C23.0106 17.3476 23.0106 17.1739 22.9037 17.0664Z" fill="#A4ACAD"/>
<path d="M14.6384 14.5579C14.5393 14.4422 14.3653 14.4288 14.2497 14.5278C14.2389 14.5371 14.2289 14.5471 14.2196 14.5579L13.1528 15.6137C13.0448 15.7209 13.044 15.8954 13.1512 16.0035C13.1518 16.0041 13.1523 16.0046 13.1528 16.0051C13.2023 16.0601 13.2718 16.0929 13.3458 16.0961C13.419 16.0965 13.4895 16.0678 13.5415 16.0161L14.6083 14.9466C14.7239 14.8475 14.7374 14.6735 14.6384 14.5579Z" fill="#A4ACAD"/>
<path d="M15.6806 13.4773C15.5731 13.3704 15.3994 13.3704 15.2919 13.4773L14.9308 13.8384C14.8239 13.9459 14.8239 14.1196 14.9308 14.2271C14.9828 14.2787 15.0532 14.3074 15.1265 14.307C15.1988 14.3067 15.2681 14.278 15.3194 14.2271L15.6806 13.8659C15.7874 13.7584 15.7874 13.5848 15.6806 13.4773Z" fill="#A4ACAD"/>
<path d="M14.1708 20.096C14.0676 20.0076 13.9154 20.0076 13.8122 20.096L13.2608 20.6473C13.1539 20.7548 13.1539 20.9285 13.2608 21.036C13.3683 21.1429 13.542 21.1429 13.6495 21.036L14.2008 20.4847C14.2999 20.369 14.2864 20.195 14.1708 20.096Z" fill="#A4ACAD"/>
<path d="M20.6814 13.5848C20.5782 13.4964 20.426 13.4964 20.3228 13.5848L14.9308 18.9768C14.8239 19.0843 14.8239 19.258 14.9308 19.3655C14.9828 19.4171 15.0532 19.4458 15.1265 19.4454C15.1988 19.4451 15.2681 19.4164 15.3194 19.3655L20.7114 13.9735C20.8106 13.8578 20.797 13.6838 20.6814 13.5848Z" fill="#A4ACAD"/>
<path d="M22.9037 18.7397C22.7964 18.6316 22.6219 18.6309 22.5138 18.7381C22.5133 18.7387 22.5127 18.7392 22.5122 18.7397L20.3731 20.8789C20.2658 20.9869 20.2663 21.1616 20.3744 21.2689C20.4826 21.3762 20.6572 21.3756 20.7645 21.2676L22.9037 19.1284C23.0106 19.0209 23.0106 18.8472 22.9037 18.7397Z" fill="#A4ACAD"/>
<path d="M28.8381 26.4308H22.4978C27.608 23.9263 29.7204 17.7533 27.2159 12.6431C24.7114 7.53289 18.5385 5.42054 13.4283 7.92502C12.2499 8.50254 11.1927 9.29983 10.3135 10.274V9.28715C10.3007 8.98296 10.0437 8.74671 9.73948 8.75946C9.60957 8.76491 9.4858 8.81611 9.39001 8.90398L6.82632 11.4677C6.61992 11.6701 6.50455 11.9477 6.50655 12.2368V16.0961H6.49001C6.33778 16.0961 6.21435 16.2195 6.21435 16.3717V17.9596C6.21304 17.9724 6.21304 17.9853 6.21435 17.9982C5.87356 18.2108 5.66543 18.5833 5.66302 18.985V21.1132H4.97385V19.7018C4.97385 19.5495 4.85043 19.4261 4.69819 19.4261H4.37015V17.9458C4.37015 17.7936 4.24672 17.6701 4.09448 17.6701H3.20684V7.88402H3.69753C3.84976 7.88402 3.97319 7.76059 3.97319 7.60835C3.97319 7.45612 3.84976 7.33269 3.69753 7.33269H3.20684V6.60218H4.3095C4.46174 6.60218 4.58517 6.47875 4.58517 6.32651C4.58517 6.17428 4.46174 6.05085 4.3095 6.05085H3.20684V5.32033H4.3095C4.46174 5.32033 4.58517 5.19691 4.58517 5.04467C4.58517 4.89243 4.46174 4.769 4.3095 4.769H3.20684V4.03849H4.3095C4.46174 4.03849 4.58517 3.91506 4.58517 3.76283C4.58517 3.61059 4.46174 3.48716 4.3095 3.48716H3.20684V2.75665H4.3095C4.46174 2.75665 4.58517 2.63322 4.58517 2.48098C4.58517 2.32875 4.46174 2.20532 4.3095 2.20532H3.20684V1.48583H3.69753C3.84976 1.48583 3.97319 1.36241 3.97319 1.21017C3.97319 1.05793 3.84976 0.934504 3.69753 0.934504H3.20684V0.275665C3.20684 0.123429 3.08341 0 2.93118 0C2.77894 0 2.65551 0.123429 2.65551 0.275665V0.934504H2.1538C2.00157 0.934504 1.87814 1.05793 1.87814 1.21017C1.87814 1.36241 2.00157 1.48583 2.1538 1.48583H2.65551V2.21635H1.55285C1.40062 2.21635 1.27719 2.33978 1.27719 2.49201C1.27719 2.64425 1.40062 2.76768 1.55285 2.76768H2.65551V3.49819H1.55285C1.40062 3.49819 1.27719 3.62162 1.27719 3.77385C1.27719 3.92609 1.40062 4.04952 1.55285 4.04952H2.65551V4.78003H1.55285C1.40062 4.78003 1.27719 4.90346 1.27719 5.0557C1.27719 5.20793 1.40062 5.33136 1.55285 5.33136H2.65551V6.06187H1.55285C1.40062 6.06187 1.27719 6.1853 1.27719 6.33754C1.27719 6.48977 1.40062 6.6132 1.55285 6.6132H2.65551V7.34372H2.1538C2.00157 7.34372 1.87814 7.46714 1.87814 7.61938C1.87814 7.77162 2.00157 7.89504 2.1538 7.89504H2.65551V17.6812H1.76787C1.61563 17.6812 1.49221 17.8046 1.49221 17.9568V19.4371H1.16141C1.00917 19.4371 0.885742 19.5606 0.885742 19.7128V29.7222C0.885742 29.8744 1.00917 29.9979 1.16141 29.9979H9.96339C10.0139 30.0007 10.0645 30.0007 10.115 29.9979C10.1315 29.9994 10.1481 29.9994 10.1646 29.9979H26.0457C27.7396 29.9963 29.1123 28.6236 29.1138 26.9297V26.7064C29.1138 26.5542 28.9904 26.4308 28.8381 26.4308ZM10.3135 11.1341C12.154 8.78 14.9777 7.40677 17.9659 7.41263V7.40987C23.3539 7.40719 27.7239 11.7728 27.7266 17.1608C27.7286 21.3735 25.0266 25.1116 21.0258 26.4308H14.9033C13.4905 25.9605 12.2036 25.1743 11.1405 24.1317V21.9677C13.7928 25.7384 18.9996 26.6449 22.7702 23.9926C26.5408 21.3403 27.4473 16.1335 24.795 12.3629C22.1427 8.59227 16.9359 7.68575 13.1653 10.3381C11.9116 11.22 10.9249 12.43 10.3135 13.8356V11.1341ZM13.4588 26.4308H11.1405V24.8843C11.8399 25.502 12.6198 26.0222 13.4588 26.4308ZM7.05788 12.2368C7.05781 12.0979 7.11336 11.9649 7.21225 11.8674L9.76215 9.28715V16.0961H7.05788V12.2368ZM6.76568 16.6474H10.0378V17.8217C10.0103 17.8202 9.98269 17.8202 9.95512 17.8217H6.84838C6.82081 17.8217 6.79324 17.8217 6.76568 17.8217V16.6474ZM2.04347 18.2215H3.81875V19.4261H2.04347V18.2215ZM2.83194 22.2848V29.4355H1.43707V19.9774H4.42252V21.1132H4.00351C3.35708 21.1147 2.83338 21.6383 2.83194 22.2848ZM7.73877 29.4135H3.38327V27.1447L4.82775 26.111C4.95876 26.0334 5.00204 25.8643 4.92444 25.7333C4.84684 25.6023 4.67779 25.559 4.54678 25.6366C4.53307 25.6448 4.52004 25.6541 4.50798 25.6644L3.38327 26.4666V25.6975L4.82775 24.6637C4.95876 24.5861 5.00204 24.4171 4.92444 24.2861C4.84684 24.1551 4.67779 24.1118 4.54678 24.1894C4.53307 24.1975 4.52004 24.2068 4.50798 24.2172L3.38327 25.0194V22.2627C3.38327 21.9201 3.66093 21.6425 4.00351 21.6425H7.11853C7.46111 21.6425 7.73877 21.9201 7.73877 22.2627V29.4135ZM10.5891 24.2475V28.8153C10.5891 29.1563 10.3127 29.4327 9.97166 29.4327C9.97076 29.4327 9.9698 29.4327 9.9689 29.4327H8.2901V22.2848C8.2901 21.6377 7.76558 21.1132 7.11853 21.1132H6.22813L6.21435 18.985C6.21435 18.6425 6.49201 18.3648 6.83459 18.3648H9.94961C10.292 18.3541 10.5782 18.623 10.5889 18.9654C10.5891 18.9747 10.5892 18.984 10.5891 18.9933V24.2475ZM10.5891 18.0175C10.5891 18.0037 10.5891 17.9927 10.5891 17.9789V16.3717C10.5891 16.2195 10.4657 16.0961 10.3135 16.0961V15.6853L10.3879 15.3408C11.3971 11.1536 15.6094 8.57732 19.7966 9.58646C23.9837 10.5956 26.56 14.808 25.5509 18.9951C24.5417 23.1823 20.3294 25.7585 16.1422 24.7494C14.0132 24.2363 12.198 22.8517 11.1405 20.934V19.0043C11.1385 18.6025 10.9304 18.2298 10.5891 18.0175ZM26.0457 29.4327V29.4217H10.9558C11.0727 29.238 11.1348 29.0248 11.135 28.807V26.9711H28.5597C28.5283 28.3378 27.4127 29.4301 26.0457 29.4327Z" fill="#A4ACAD"/>
<path d="M26.5121 27.6547H25.5032C25.351 27.6547 25.2275 27.7782 25.2275 27.9304C25.2275 28.0826 25.351 28.2061 25.5032 28.2061H26.5121C26.6644 28.2061 26.7878 28.0826 26.7878 27.9304C26.7878 27.7782 26.6644 27.6547 26.5121 27.6547Z" fill="#A4ACAD"/>
<path d="M24.08 27.6547H19.5013C19.349 27.6547 19.2256 27.7782 19.2256 27.9304C19.2256 28.0826 19.349 28.2061 19.5013 28.2061H24.08C24.2323 28.2061 24.3557 28.0826 24.3557 27.9304C24.3557 27.7782 24.2324 27.6547 24.08 27.6547Z" fill="#A4ACAD"/>
<path d="M7.81375 12.347C7.66151 12.347 7.53809 12.4705 7.53809 12.6227V14.7398C7.53809 14.8921 7.66151 15.0155 7.81375 15.0155C7.96599 15.0155 8.08942 14.8921 8.08942 14.7398V12.6227C8.08942 12.4705 7.96599 12.347 7.81375 12.347Z" fill="#A4ACAD"/>
</g>
<defs>
<clipPath id="clip0_622_2206">
<rect width="30" height="30" fill="white"/>
</clipPath>
</defs>
</svg>
