<svg width="32" height="32" viewBox="0 0 32 32" fill="none" xmlns="http://www.w3.org/2000/svg">
<path d="M18.6805 3.76444C18.1734 3.76444 17.7623 3.35338 17.7623 2.84619V1.83644H10.7838V2.84625C10.7838 3.35338 10.3727 3.7645 9.86552 3.7645C9.35833 3.7645 8.94727 3.35344 8.94727 2.84625V0.91825C8.94733 0.411063 9.35839 0 9.86552 0H18.6805C19.1876 0 19.5988 0.411063 19.5988 0.91825V2.84625C19.5988 3.35338 19.1876 3.76444 18.6805 3.76444Z" fill="black" fill-opacity="0.5"/>
<path d="M22.9043 32C19.0563 32 15.9258 28.8695 15.9258 25.0214C15.9258 21.1733 19.0563 18.0428 22.9043 18.0428C26.7524 18.0428 29.8828 21.1734 29.8828 25.0214C29.8828 28.8694 26.7523 32 22.9043 32ZM22.9043 19.8793C20.069 19.8793 17.7623 22.1861 17.7623 25.0214C17.7623 27.8567 20.069 30.1635 22.9043 30.1635C25.7397 30.1635 28.0464 27.8567 28.0464 25.0214C28.0464 22.1861 25.7397 19.8793 22.9043 19.8793Z" fill="black" fill-opacity="0.5"/>
<path d="M18.6048 30.209H6.55957C6.08613 30.209 5.69038 29.8491 5.64545 29.3778L3.80882 10.0955C3.78432 9.83796 3.86951 9.58209 4.04351 9.39065C4.21763 9.19927 4.46426 9.09021 4.72288 9.09021H23.8246C24.3318 9.09021 24.7429 9.50127 24.7429 10.0085C24.7429 10.5156 24.3318 10.9267 23.8246 10.9267H5.73282L7.39457 28.3726H18.6048C19.1119 28.3726 19.523 28.7836 19.523 29.2908C19.523 29.798 19.1119 30.209 18.6048 30.209Z" fill="black" fill-opacity="0.5"/>
<path d="M9.89753 26.5361C9.42959 26.5361 9.02978 26.1802 8.98453 25.7049L8.07841 16.1923C8.03041 15.6875 8.40059 15.2393 8.90547 15.1912C9.41116 15.1433 9.85859 15.5134 9.90659 16.0183L10.8127 25.5308C10.8607 26.0356 10.4905 26.4838 9.98566 26.5319C9.95603 26.5348 9.92666 26.5361 9.89753 26.5361Z" fill="black" fill-opacity="0.5"/>
<path d="M19.1869 21.1554C19.1567 21.1554 19.1262 21.1538 19.0955 21.1509C18.5908 21.101 18.2222 20.6514 18.2721 20.1468L18.6804 16.0151C18.7303 15.5103 19.1801 15.1423 19.6845 15.1916C20.1892 15.2415 20.5578 15.6911 20.5079 16.1957L20.0996 20.3274C20.0528 20.8013 19.6533 21.1554 19.1869 21.1554Z" fill="black" fill-opacity="0.5"/>
<path d="M22.9727 19.881C22.9696 19.881 22.9664 19.881 22.9633 19.881C22.9451 19.8808 22.9269 19.8803 22.9088 19.8797L22.8991 19.8794C22.3921 19.8794 21.9844 19.4683 21.9844 18.9612C21.9844 18.8063 22.0231 18.6603 22.0913 18.5323L22.3306 16.0184C22.3788 15.5136 22.8266 15.1436 23.3318 15.1913C23.8366 15.2395 24.2068 15.6877 24.1588 16.1925L23.8866 19.05C23.8417 19.5216 23.4455 19.881 22.9727 19.881Z" fill="black" fill-opacity="0.5"/>
<path d="M20.5529 28.2914C20.3179 28.2914 20.0829 28.2018 19.9037 28.0224C19.5451 27.6639 19.5451 27.0824 19.9037 26.7238L24.6071 22.0204C24.9656 21.6619 25.5471 21.6619 25.9057 22.0204C26.2642 22.379 26.2642 22.9604 25.9057 23.3191L21.2023 28.0224C21.023 28.2018 20.7879 28.2914 20.5529 28.2914Z" fill="black" fill-opacity="0.5"/>
<path d="M25.2564 28.2914C25.0214 28.2914 24.7863 28.2018 24.6071 28.0224L19.9037 23.3191C19.5451 22.9605 19.5451 22.3791 19.9037 22.0204C20.2623 21.6619 20.8437 21.6619 21.2023 22.0204L25.9057 26.7238C26.2643 27.0824 26.2643 27.6638 25.9057 28.0224C25.7264 28.2018 25.4913 28.2914 25.2564 28.2914Z" fill="black" fill-opacity="0.5"/>
<path d="M25.5142 6.33551H3.0332V11.3288H25.5142V6.33551Z" fill="#DBDBDB" fill-opacity="0.5"/>
<path d="M25.5147 12.2469H3.03348C2.52636 12.2469 2.11523 11.8358 2.11523 11.3286V6.33549C2.11523 5.82836 2.5263 5.41724 3.03348 5.41724H25.5147C26.0219 5.41724 26.433 5.8283 26.433 6.33549V11.3285C26.4329 11.8357 26.0219 12.2469 25.5147 12.2469ZM3.95167 10.4104H24.5965V7.25374H3.95167V10.4104Z" fill="black" fill-opacity="0.5"/>
<path d="M14.2737 26.536C13.7666 26.536 13.3555 26.125 13.3555 25.6178V16C13.3555 15.4929 13.7665 15.0818 14.2737 15.0818C14.7809 15.0818 15.192 15.4928 15.192 16V25.6178C15.192 26.125 14.7808 26.536 14.2737 26.536Z" fill="black" fill-opacity="0.5"/>
</svg>
