<svg width="64.000000" height="64.000000" viewBox="0 0 64 64" fill="none" xmlns="http://www.w3.org/2000/svg" xmlns:xlink="http://www.w3.org/1999/xlink">
	<desc>
			Created with Pixso.
	</desc>
	<defs>
		<clipPath id="clip652_648">
			<rect id="facebook_w965xi9gloy8 1" width="64.000000" height="64.000000" fill="white" fill-opacity="0"/>
		</clipPath>
	</defs>
	<rect id="facebook_w965xi9gloy8 1" width="64.000000" height="64.000000" fill="#FFFFFF" fill-opacity="0"/>
	<g clip-path="url(#clip652_648)">
		<path id="Vector" d="M32 0C49.67 0 64 14.32 64 32C64 49.67 49.67 64 32 64C14.32 64 0 49.67 0 32C0 14.32 14.32 0 32 0Z" fill="#005CE6" fill-opacity="1.000000" fill-rule="nonzero"/>
		<path id="Vector" d="M35.89 22.02L40.02 22.02L40.02 15.93L35.17 15.93L35.17 15.96C29.29 16.16 28.09 19.46 27.98 22.93L27.97 22.93L27.97 25.98L23.97 25.98L23.97 31.94L27.97 31.94L27.97 47.93L34 47.93L34 31.94L38.94 31.94L39.89 25.98L34 25.98L34 24.14C34 22.97 34.78 22.02 35.89 22.02Z" fill="#FFFFFF" fill-opacity="1.000000" fill-rule="nonzero"/>
	</g>
</svg>
