<svg width="63.000000" height="63.000000" viewBox="0 0 63 63" fill="none" xmlns="http://www.w3.org/2000/svg" xmlns:xlink="http://www.w3.org/1999/xlink">
	<desc>
			Created with Pixso.
	</desc>
	<defs>
		<clipPath id="clip652_652">
			<rect id="google_x059eo6ft27v 1" width="63.000000" height="63.000000" fill="white" fill-opacity="0"/>
		</clipPath>
	</defs>
	<rect id="google_x059eo6ft27v 1" width="63.000000" height="63.000000" fill="#FFFFFF" fill-opacity="0"/>
	<g clip-path="url(#clip652_652)">
		<path id="Vector" d="M63 31.5C63 48.89 48.89 63 31.5 63C14.1 63 0 48.89 0 31.5C0 14.1 14.1 0 31.5 0C48.89 0 63 14.1 63 31.5Z" fill="#5C5560" fill-opacity="1.000000" fill-rule="evenodd"/>
		<path id="Vector" d="M63 31.5C63 48.89 48.89 63 31.5 63C14.1 63 0 48.89 0 31.5C0 14.1 14.1 0 31.5 0C48.89 0 63 14.1 63 31.5Z" fill="#EEEEEE" fill-opacity="1.000000" fill-rule="evenodd"/>
		<path id="Vector" d="M58.69 26.33L47.12 26.33L32.1 26.33L32.1 37.27L46.9 37.27C45.57 40.83 43.04 43.8 39.81 45.7C37.37 47.13 34.53 47.95 31.5 47.95C24.44 47.95 18.42 43.51 16.09 37.27C15.41 35.47 15.04 33.53 15.04 31.5C15.04 29.62 15.36 27.82 15.93 26.15C18.15 19.69 24.28 15.04 31.5 15.04C34.69 15.04 37.67 15.95 40.19 17.53L49.16 10.19C44.37 6.21 38.21 3.82 31.5 3.82C20.8 3.82 11.52 9.89 6.91 18.77C4.94 22.58 3.82 26.91 3.82 31.5C3.82 36.24 5.01 40.71 7.12 44.61C11.79 53.28 20.96 59.17 31.5 59.17C38.05 59.17 44.08 56.89 48.82 53.08C53.7 49.16 57.22 43.62 58.56 37.27C58.96 35.41 59.17 33.48 59.17 31.5C59.17 29.73 59 28 58.69 26.33Z" fill="#FBBB00" fill-opacity="1.000000" fill-rule="nonzero"/>
		<path id="Vector" d="M48.82 53.08L48.82 53.08C44.08 56.89 38.05 59.17 31.49 59.17C20.96 59.17 11.79 53.28 7.12 44.61L16.09 37.27C18.42 43.51 24.44 47.95 31.5 47.95C34.53 47.95 37.37 47.13 39.81 45.7L48.82 53.08Z" fill="#28B446" fill-opacity="1.000000" fill-rule="nonzero"/>
		<path id="Vector" d="M58.69 26.33C59 28 59.17 29.73 59.17 31.5C59.17 33.48 58.96 35.41 58.57 37.27C57.22 43.62 53.7 49.16 48.82 53.08L48.82 53.08L39.81 45.7C43.04 43.8 45.57 40.83 46.9 37.27L32.1 37.27L32.1 26.33L47.12 26.33L58.69 26.33Z" fill="#518EF8" fill-opacity="1.000000" fill-rule="nonzero"/>
		<path id="Vector" d="M49.16 10.19L40.19 17.53C37.67 15.95 34.69 15.04 31.5 15.04C24.28 15.04 18.15 19.69 15.93 26.15L6.92 18.77L6.91 18.77C11.52 9.89 20.8 3.82 31.5 3.82C38.21 3.82 44.37 6.21 49.16 10.19Z" fill="#FC3F1D" fill-opacity="1.000000" fill-rule="nonzero"/>
	</g>
</svg>
