<svg width="28.000000" height="28.000000" viewBox="0 0 28 28" fill="none" xmlns="http://www.w3.org/2000/svg" xmlns:xlink="http://www.w3.org/1999/xlink">
	<desc>
			Created with Pixso.
	</desc>
	<defs/>
	<path id="Vector" d="M27.16 18.33L22.87 18.33L26.59 16.18C26.78 16.07 26.92 15.89 26.97 15.67C27.03 15.46 27 15.23 26.89 15.04L22.89 8.11C22.66 7.72 22.15 7.58 21.75 7.81L18.03 9.96L20.18 6.24C20.29 6.05 20.32 5.82 20.26 5.6C20.21 5.39 20.07 5.21 19.88 5.1L12.95 1.1C12.55 0.87 12.04 1.01 11.81 1.4L9.66 5.12L9.66 0.83C9.66 0.37 9.29 0 8.83 0L0.83 0C0.37 0 0 0.37 0 0.83L0 23.05C0 24.41 0.56 25.64 1.47 26.52C2.35 27.43 3.58 28 4.94 28L27.16 28C27.62 28 28 27.62 28 27.16L28 19.16C28 18.7 27.62 18.33 27.16 18.33ZM21.86 9.67L25.03 15.15L19.53 18.33L6.87 18.33L21.86 9.67ZM12.84 2.96L18.32 6.13L15.15 11.62L4.18 17.96L12.84 2.96ZM1.66 1.66L8 1.66L8 8.01L1.66 18.98L1.66 1.66ZM26.33 26.33L4.94 26.33C3.19 26.33 1.77 24.91 1.77 23.16C1.77 21.42 3.19 20 4.94 20L26.33 20L26.33 26.33Z" fill="#000000" fill-opacity="1.000000" fill-rule="nonzero"/>
</svg>
