<svg width="30" height="30" viewBox="0 0 30 30" fill="none" xmlns="http://www.w3.org/2000/svg">
<path d="M0.62499 7.12658H2.41021V5.78323C2.41021 5.53288 2.55957 5.30671 2.78986 5.20838C6.56012 3.59893 11.1988 4.28105 15 6.97716C18.8012 4.28105 23.44 3.59912 27.2101 5.20838C27.4404 5.30671 27.5898 5.53288 27.5898 5.78323V7.12658H29.375C29.7201 7.12658 30 7.40639 30 7.75157V25.0268C30 25.372 29.7201 25.6518 29.375 25.6518H15H0.62499C0.279804 25.6518 0 25.3719 0 25.0268V7.75164C0 7.40645 0.279804 7.12658 0.62499 7.12658ZM28.75 24.4018V8.37663H27.5898V23.0585C27.5898 23.2684 27.4844 23.4643 27.3092 23.58C27.134 23.6956 26.9126 23.7156 26.7195 23.6332C23.7919 22.3835 20.2565 22.6961 17.1186 24.4018H28.75ZM15.625 23.8318C17.9061 22.3782 20.4435 21.6234 22.8929 21.6234C24.0754 21.6234 25.2372 21.7993 26.3397 22.1575V7.75887C26.3397 7.7564 26.3394 7.75405 26.3394 7.75164C26.3394 7.74923 26.3397 7.74681 26.3397 7.7444V6.20598C23.0061 4.95651 18.964 5.65526 15.625 8.0668V23.8318ZM14.375 8.0668C11.036 5.6552 6.9936 4.95651 3.66019 6.20598V7.74434C3.66019 7.74675 3.66057 7.74916 3.66057 7.75157C3.66057 7.75399 3.66025 7.7564 3.66019 7.75881V22.1573C7.04654 21.0574 10.9927 21.6764 14.375 23.8317V8.0668ZM1.24998 24.4018H12.8814C9.74347 22.6961 6.20814 22.3836 3.28053 23.6332C3.08744 23.7158 2.86578 23.6957 2.69077 23.58C2.51558 23.4643 2.41021 23.2684 2.41021 23.0585V8.37663H1.24998V24.4018Z" fill="#A4ACAD"/>
</svg>
