<svg width="30" height="30" viewBox="0 0 30 30" fill="none" xmlns="http://www.w3.org/2000/svg">
<path d="M4.66309 6.90195V4.40942C4.66309 4.16658 4.46625 3.96997 4.22363 3.96997C3.98079 3.96997 3.78418 4.16658 3.78418 4.40942V6.90195C3.78418 7.14479 3.98079 7.3414 4.22363 7.3414C4.46625 7.3414 4.66309 7.14479 4.66309 6.90195Z" fill="#A4ACAD"/>
<path d="M4.22363 12.3798C3.98079 12.3798 3.78418 12.5764 3.78418 12.8192V15.3117C3.78418 15.5546 3.98079 15.7512 4.22363 15.7512C4.46625 15.7512 4.66309 15.5546 4.66309 15.3117V12.8192C4.66309 12.5766 4.46625 12.3798 4.22363 12.3798Z" fill="#A4ACAD"/>
<path d="M28.3184 20.8427C28.5612 20.8427 28.7579 20.6458 28.7579 20.4032V18.3808C28.7579 17.5685 28.0968 16.9075 27.2843 16.9075H22.5151C22.5135 16.9075 22.5119 16.9073 22.5105 16.9073H20.0127V1.20575C20.0127 0.540848 19.4717 0 18.807 0H2.43645C1.77155 0 1.23047 0.540848 1.23047 1.20575V3.53027C1.23047 3.77312 1.42731 3.96973 1.66992 3.96973C1.91277 3.96973 2.10938 3.77312 2.10938 3.53027V1.20575C2.10938 1.02562 2.25609 0.878906 2.43645 0.878906H18.807C18.9871 0.878906 19.1338 1.02562 19.1338 1.20575V8.30841H2.10938V5.28809C2.10938 5.04524 1.91277 4.84863 1.66992 4.84863C1.42731 4.84863 1.23047 5.04524 1.23047 5.28809V8.74329V8.74786V11.25V11.2546V26.7586C1.23047 27.4235 1.77155 27.9646 2.43645 27.9646H2.7253V29.4434C2.7253 29.7503 2.97501 30 3.28194 30H4.73808C5.04112 30 5.28854 29.7565 5.29449 29.4548H6.85455C7.0974 29.4548 7.29401 29.2582 7.29401 29.0154C7.29401 28.7727 7.0974 28.5759 6.85455 28.5759H4.97246C4.66942 28.5759 4.422 28.8194 4.41582 29.1211H3.6042V27.9646H8.12897V28.5265C8.12897 29.339 8.78998 30 9.60251 30H27.2843C28.0968 30 28.7579 29.339 28.7579 28.5265V22.1608C28.7579 21.9182 28.5612 21.7213 28.3184 21.7213C28.0758 21.7213 27.879 21.9182 27.879 22.1608V28.5265C27.879 28.8544 27.6123 29.1211 27.2843 29.1211H22.95V17.7864H27.2843C27.6123 17.7864 27.879 18.0531 27.879 18.3808V20.4032C27.879 20.6458 28.0758 20.8427 28.3184 20.8427ZM19.1336 9.18732V9.61899H6.55609C6.37619 9.61899 6.20705 9.68903 6.07956 9.81651L5.08553 10.8105H2.10938V9.18732H19.1336ZM2.43645 27.0856C2.25609 27.0856 2.10938 26.9389 2.10938 26.7586V11.6895H5.17044C5.35057 11.6895 5.51971 11.6194 5.64697 11.4922L6.64101 10.4979H19.1338V16.9073H9.60251C8.8472 16.9073 8.22281 17.4788 8.13858 18.2119C8.13217 18.2675 8.12897 18.3238 8.12897 18.381V27.0856H2.43645ZM22.0711 29.1211H9.60251C9.27452 29.1211 9.00787 28.8542 9.00787 28.5265V18.381C9.00787 18.0531 9.27475 17.7864 9.60251 17.7864H22.0711V29.1211Z" fill="#A4ACAD"/>
<path d="M9.41309 28.0423C9.41309 28.4138 9.71544 28.7162 10.0869 28.7162H20.9924C21.3642 28.7162 21.6663 28.4138 21.6663 28.0423V18.8649C21.6663 18.4934 21.3642 18.191 20.9924 18.191H12.9683C12.7257 18.191 12.5289 18.3879 12.5289 18.6305C12.5289 18.8733 12.7257 19.0699 12.9683 19.0699H20.7874V27.8373H10.292V19.0699H11.2105C11.4531 19.0699 11.6499 18.8733 11.6499 18.6305C11.6499 18.3879 11.4531 18.191 11.2105 18.191H10.0869C9.71544 18.191 9.41309 18.4934 9.41309 18.8649V28.0423Z" fill="#A4ACAD"/>
<path d="M26.8654 21.2819C26.8654 20.4819 26.2147 19.831 25.4145 19.831C24.6146 19.831 23.9639 20.4819 23.9639 21.2819C23.9639 22.0818 24.6146 22.7328 25.4145 22.7328C26.2147 22.7328 26.8654 22.0818 26.8654 21.2819ZM24.8428 21.2819C24.8428 20.9665 25.0993 20.7099 25.4145 20.7099C25.7299 20.7099 25.9865 20.9665 25.9865 21.2819C25.9865 21.5973 25.7299 21.8539 25.4145 21.8539C25.0993 21.8539 24.8428 21.5973 24.8428 21.2819Z" fill="#A4ACAD"/>
<path d="M24.6991 23.9344H24.2656C24.023 23.9344 23.8262 24.131 23.8262 24.3738C23.8262 24.6165 24.023 24.8133 24.2656 24.8133H24.6991C24.9417 24.8133 25.1386 24.6165 25.1386 24.3738C25.1386 24.131 24.9417 23.9344 24.6991 23.9344Z" fill="#A4ACAD"/>
<path d="M26.5634 23.9344H26.1299C25.8873 23.9344 25.6904 24.131 25.6904 24.3738C25.6904 24.6165 25.8873 24.8133 26.1299 24.8133H26.5634C26.806 24.8133 27.0028 24.6165 27.0028 24.3738C27.0028 24.131 26.806 23.9344 26.5634 23.9344Z" fill="#A4ACAD"/>
<path d="M24.6991 25.6103H24.2656C24.023 25.6103 23.8262 25.8069 23.8262 26.0497C23.8262 26.2926 24.023 26.4892 24.2656 26.4892H24.6991C24.9417 26.4892 25.1386 26.2926 25.1386 26.0497C25.1386 25.8069 24.9417 25.6103 24.6991 25.6103Z" fill="#A4ACAD"/>
<path d="M26.5634 25.6103H26.1299C25.8873 25.6103 25.6904 25.8069 25.6904 26.0497C25.6904 26.2926 25.8873 26.4892 26.1299 26.4892H26.5634C26.806 26.4892 27.0028 26.2926 27.0028 26.0497C27.0028 25.8069 26.806 25.6103 26.5634 25.6103Z" fill="#A4ACAD"/>
</svg>
