<svg width="30" height="30" viewBox="0 0 30 30" fill="none" xmlns="http://www.w3.org/2000/svg">
<g clip-path="url(#clip0_622_2250)">
<path d="M29.0808 16.809C27.6648 15.8649 26.4934 15.8768 24.158 16.1294C21.8551 16.3782 16.8595 14.9143 15.4605 13.8067C14.3199 12.9038 11.679 9.44694 10.5966 8.00257C10.2349 7.51997 9.66181 7.25809 9.06701 7.29015L8.54356 6.62382C8.32681 6.34785 8.00144 6.17913 7.65105 6.16084C7.30072 6.1433 6.95951 6.2765 6.71516 6.52827L5.77041 7.50181C4.42957 7.42662 3.56063 7.1296 3.07521 6.89903C2.68264 6.71258 2.23148 6.74087 1.86826 6.97477C1.50951 7.20579 1.29968 7.59906 1.30684 8.0267C1.3433 10.1925 1.3042 14.1454 0.632965 16.2849C-0.00256807 18.3106 -0.160477 20.349 0.163576 22.3436C0.171245 22.3906 0.177468 22.4289 0.18168 22.4581C0.200727 22.5914 0.302375 22.6977 0.434636 22.7226C3.37582 23.2767 7.83725 23.8407 13.8146 23.8406C15.8239 23.8406 18.0058 23.7768 20.3571 23.6275L20.4334 23.6227C23.9522 23.3998 26.8951 22.5511 29.1805 21.1001C29.5662 20.8552 29.8318 20.4544 29.9092 20.0004C30.0602 19.1155 30.1532 17.5239 29.0808 16.809ZM28.4683 17.1667C28.2607 17.4215 27.7942 17.8707 26.8255 18.3528C26.236 18.6461 25.5739 18.8948 24.8686 19.106C24.5532 18.5166 24.4926 17.3739 24.4986 16.7256C26.5154 16.5188 27.444 16.5641 28.4683 17.1667ZM21.5801 17.4224L21.7241 16.6146C21.8497 16.6347 21.9741 16.6532 22.0969 16.67L21.9512 17.489C21.9424 17.5385 21.9149 17.5815 21.8737 17.6103C21.8324 17.6392 21.7821 17.6502 21.7325 17.6412C21.6422 17.625 21.5767 17.5474 21.5767 17.4565C21.5767 17.4454 21.5776 17.4355 21.5801 17.4224ZM19.0256 17.0979L19.5284 16.1409C19.653 16.1742 19.7781 16.2065 19.9033 16.2378L19.3591 17.2734C19.3357 17.3179 19.2965 17.3507 19.2484 17.3656C19.2003 17.3805 19.1495 17.3759 19.1049 17.3524C19.0426 17.3196 19.0038 17.2555 19.0038 17.1849C19.0038 17.1549 19.0113 17.1253 19.0256 17.0979ZM17.6111 15.543L16.5801 16.7127C16.5115 16.7907 16.3922 16.7982 16.3144 16.7299C16.2737 16.694 16.2504 16.6424 16.2504 16.5884C16.2504 16.5425 16.2671 16.4982 16.2977 16.4635L17.232 15.402C17.3558 15.4495 17.4824 15.4965 17.6111 15.543ZM15.5216 14.6045L14.2131 15.6561C14.1322 15.7212 14.0129 15.708 13.9477 15.6271C13.9135 15.5845 13.9063 15.5397 13.9063 15.5097C13.9063 15.4516 13.932 15.3978 13.9768 15.3618L15.1888 14.3883C15.2881 14.4596 15.3994 14.5318 15.5216 14.6045ZM14.701 13.9738L13.5833 14.8716C13.3891 15.0274 13.2777 15.26 13.2777 15.5097C13.2777 15.6948 13.3416 15.8763 13.4579 16.0211C13.6192 16.2215 13.8566 16.3258 14.096 16.3258C14.2755 16.3257 14.4562 16.2671 14.6068 16.1463L16.1246 14.9265C16.2793 15.0015 16.4436 15.0765 16.6157 15.1509L15.8261 16.048C15.6943 16.1974 15.6218 16.3893 15.6218 16.5884C15.6218 16.8227 15.7226 17.046 15.8989 17.2016C16.0495 17.334 16.2391 17.4054 16.4377 17.4054C16.4553 17.4054 16.473 17.4048 16.4907 17.4037C16.7086 17.3898 16.908 17.2919 17.052 17.1281L18.2544 15.7639C18.4689 15.8338 18.6878 15.9018 18.9095 15.9672L18.4685 16.8066C18.4074 16.9238 18.3752 17.0547 18.3752 17.185C18.3752 17.4897 18.5426 17.7671 18.812 17.9088C18.931 17.9715 19.0607 18.0033 19.1914 18.0033C19.2729 18.0033 19.355 17.9909 19.435 17.966C19.6436 17.9011 19.8144 17.7588 19.9156 17.5657L20.5351 16.387C20.7261 16.4293 20.9163 16.4688 21.105 16.5053L20.9617 17.3089C20.9526 17.357 20.948 17.4067 20.948 17.4566C20.948 17.8526 21.2315 18.1905 21.6218 18.2601C21.6704 18.2688 21.7193 18.2731 21.7677 18.2731C21.9332 18.2731 22.0945 18.2227 22.2332 18.126C22.4124 18.0011 22.532 17.8138 22.5701 17.5991L22.7226 16.7419C23.1355 16.7795 23.5222 16.7937 23.8692 16.78C23.8664 17.2555 23.8941 18.0983 24.0889 18.8085C22.5105 18.7598 17.1331 18.4854 14.2804 16.9812C11.4107 15.4682 8.47617 9.68343 7.70819 8.08737C8.18802 8.04594 8.62082 7.98773 8.9763 7.9304C9.14716 7.90274 9.31752 7.91393 9.47738 7.95856L9.06418 8.16557C8.78564 8.30487 8.61265 8.58504 8.61265 8.89678C8.61265 9.02539 8.64194 9.14873 8.6994 9.26263C8.8426 9.54834 9.13163 9.71373 9.43123 9.71366C9.55407 9.71366 9.67866 9.68594 9.79571 9.62723L10.6952 9.17651C10.9124 9.46197 11.1437 9.7632 11.3832 10.0717L10.4038 10.5625C10.1252 10.7018 9.95223 10.982 9.95223 11.2937C9.95223 11.4224 9.98153 11.5458 10.039 11.6596C10.1822 11.9453 10.4713 12.1107 10.7711 12.1107C10.894 12.1107 11.0187 12.0829 11.1359 12.0242L12.4184 11.3813C12.6234 11.6352 12.8282 11.8855 13.0299 12.1275L11.8351 12.8534C11.5922 13.0002 11.4414 13.2681 11.4414 13.5523C11.4414 13.7021 11.4825 13.8487 11.5601 13.9763C11.6733 14.1628 11.8524 14.294 12.0643 14.3458C12.1292 14.3617 12.1948 14.3695 12.2598 14.3695C12.4077 14.3695 12.5532 14.329 12.6826 14.2503L14.1194 13.3781C14.3276 13.603 14.5232 13.8043 14.701 13.9738ZM10.0935 8.37961C10.1625 8.47164 10.235 8.56807 10.3093 8.66658L9.51415 9.06506C9.42136 9.11145 9.30803 9.07373 9.26113 8.98007C9.24806 8.95404 9.24139 8.92594 9.24139 8.89652C9.24139 8.82442 9.28131 8.75967 9.34574 8.72749L10.0783 8.3605C10.0832 8.36698 10.0886 8.37307 10.0935 8.37961ZM11.7779 10.5768C11.8571 10.6775 11.9369 10.7784 12.0169 10.8792L10.8543 11.462C10.7613 11.5086 10.6477 11.4708 10.6006 11.3769C10.5875 11.351 10.5809 11.3229 10.5809 11.2935C10.5809 11.2214 10.6208 11.1567 10.6852 11.1244L11.7779 10.5768ZM13.441 12.6132C13.5256 12.7117 13.6093 12.8085 13.6916 12.9022L12.3562 13.713C12.3132 13.7392 12.2626 13.7469 12.2137 13.7351C12.1648 13.7231 12.1235 13.6928 12.0973 13.6498C12.0793 13.6201 12.0701 13.5873 12.0701 13.5522C12.0701 13.4856 12.1039 13.4253 12.161 13.3908L13.441 12.6132ZM7.16632 6.96604C7.28431 6.84434 7.44876 6.77877 7.61824 6.78864C7.78746 6.7975 7.94455 6.87897 8.04922 7.01224L8.34379 7.38721C7.71517 7.46969 7.14551 7.50948 6.6308 7.5179L7.16632 6.96604ZM1.93546 8.01621C1.93188 7.80436 2.03145 7.61741 2.20866 7.50338C2.38775 7.38796 2.61085 7.37432 2.80553 7.46692C4.08986 8.07699 5.67775 8.19002 7.03274 8.13106C7.28809 8.67387 8.06449 10.2773 9.11592 12.0121C10.8634 14.8952 12.5023 16.7542 13.9873 17.5372C16.7753 19.0072 21.6662 19.3462 23.6581 19.4242C21.4825 19.9242 19.0714 20.133 17.1382 20.2139C7.93481 20.6 1.93339 19.3163 0.698467 19.0221C0.788611 18.1736 0.966385 17.3225 1.23279 16.4733C1.9305 14.2491 1.97249 10.22 1.93546 8.01621ZM20.1912 21.556C11.0421 22.1264 4.52172 21.3938 0.634725 20.6684C0.624919 20.3315 0.628691 19.9938 0.647109 19.6555C1.91968 19.9514 6.61025 20.914 13.751 20.914C14.8332 20.914 15.9732 20.8918 17.1644 20.842C18.3388 20.7928 19.3996 20.7109 20.3584 20.6044C20.3056 20.8475 20.2427 21.176 20.1912 21.556ZM0.768747 22.1453C0.726189 21.8693 0.69457 21.5922 0.671437 21.3145C3.61312 21.8541 7.99516 22.3886 13.8146 22.3886C15.7568 22.3886 17.8608 22.3288 20.1228 22.19C20.1019 22.4541 20.0898 22.7314 20.0917 23.014C11.0992 23.5667 4.6565 22.8599 0.768747 22.1453ZM29.2896 19.8949C29.242 20.1739 29.0795 20.4199 28.8436 20.5696C26.7191 21.9184 23.9875 22.7263 20.7205 22.9727C20.7189 21.923 20.9245 20.9341 21.0221 20.5246C26.5466 19.8098 28.3989 18.2488 28.9676 17.5445C29.2531 17.8827 29.5174 18.5588 29.2896 19.8949Z" fill="#A4ACAD"/>
<path d="M10.9279 19.8364C11.4132 19.8364 11.808 19.4417 11.808 18.9564C11.808 18.4711 11.4132 18.0763 10.9279 18.0763C10.4426 18.0763 10.0479 18.4711 10.0479 18.9564C10.0479 19.4417 10.4426 19.8364 10.9279 19.8364ZM10.9279 18.7049C11.0666 18.7049 11.1794 18.8177 11.1794 18.9564C11.1794 19.095 11.0666 19.2078 10.9279 19.2078C10.7892 19.2078 10.6765 19.095 10.6765 18.9564C10.6765 18.8177 10.7892 18.7049 10.9279 18.7049Z" fill="#A4ACAD"/>
<path d="M13.0656 19.8364C13.5509 19.8364 13.9457 19.4417 13.9457 18.9564C13.9457 18.4711 13.5509 18.0763 13.0656 18.0763C12.5803 18.0763 12.1855 18.4711 12.1855 18.9564C12.1855 19.4417 12.5803 19.8364 13.0656 19.8364ZM13.0656 18.7049C13.2043 18.7049 13.3171 18.8177 13.3171 18.9564C13.3171 19.095 13.2043 19.2078 13.0656 19.2078C12.9269 19.2078 12.8142 19.095 12.8142 18.9564C12.8142 18.8177 12.9269 18.7049 13.0656 18.7049Z" fill="#A4ACAD"/>
<path d="M5.58479 15.6875C6.97127 15.6875 8.09926 14.5596 8.09926 13.1731C8.09926 11.7866 6.97127 10.6586 5.58479 10.6586C4.19831 10.6586 3.07031 11.7866 3.07031 13.1731C3.07031 14.5596 4.19824 15.6875 5.58479 15.6875ZM5.58479 11.2872C6.62465 11.2872 7.47064 12.1332 7.47064 13.1731C7.47064 14.2129 6.62465 15.0589 5.58479 15.0589C4.54493 15.0589 3.69893 14.2129 3.69893 13.1731C3.69893 12.1332 4.54493 11.2872 5.58479 11.2872Z" fill="#A4ACAD"/>
</g>
<defs>
<clipPath id="clip0_622_2250">
<rect width="30" height="30" fill="white"/>
</clipPath>
</defs>
</svg>
