<svg width="30" height="30" viewBox="0 0 30 30" fill="none" xmlns="http://www.w3.org/2000/svg">
<g clip-path="url(#clip0_622_2240)">
<path d="M27.326 3.6344C25.5969 1.89353 23.2975 0.934814 20.8514 0.934814C18.6886 0.934814 16.6407 1.68423 15.0001 3.06112C13.3595 1.68417 11.3115 0.934814 9.14874 0.934814C6.70263 0.934814 4.40329 1.89353 2.67407 3.63446C-0.891358 7.22427 -0.891358 13.0654 2.67407 16.6552L15.0001 29.0653L27.326 16.6551C30.8914 13.0653 30.8914 7.22427 27.326 3.6344ZM26.0793 15.4169L15.0001 26.5717L3.92089 15.4169C1.03362 12.5098 1.03362 7.77962 3.92089 4.87261C5.31759 3.4663 7.17437 2.69187 9.1488 2.69187C11.1232 2.69187 12.98 3.46636 14.3768 4.87261L15.0001 5.50021L15.6235 4.87261C17.0202 3.4663 18.8769 2.69187 20.8514 2.69187C22.8259 2.69187 24.6826 3.46636 26.0794 4.87261C28.9667 7.77968 28.9667 12.5099 26.0793 15.4169Z" fill="#A4ACAD"/>
<path d="M15.0001 6.61606C11.1247 6.61606 7.97168 9.76899 7.97168 13.6445C7.97168 17.52 11.1247 20.6729 15.0001 20.6729C18.8756 20.6729 22.0286 17.52 22.0286 13.6445C22.0286 9.76899 18.8756 6.61606 15.0001 6.61606ZM15.0001 18.9158C12.0935 18.9158 9.72879 16.5511 9.72879 13.6445C9.72879 10.7379 12.0935 8.37317 15.0001 8.37317C17.9067 8.37317 20.2714 10.7379 20.2714 13.6445C20.2714 16.5511 17.9068 18.9158 15.0001 18.9158Z" fill="#A4ACAD"/>
<path d="M15.8782 12.7659V10.306H14.1211V12.7659H11.7197V14.5231H14.1211V16.8659H15.8782V14.5231H18.2796V12.7659H15.8782Z" fill="#A4ACAD"/>
</g>
<defs>
<clipPath id="clip0_622_2240">
<rect width="30" height="30" fill="white"/>
</clipPath>
</defs>
</svg>
