<svg width="38.000000" height="36.000000" viewBox="0 0 38 36" fill="none" xmlns="http://www.w3.org/2000/svg" xmlns:xlink="http://www.w3.org/1999/xlink">
	<desc>
			Created with Pixso.
	</desc>
	<defs/>
	<path id="Star 7" d="M17.57 0.17L12.98 11.03C12.84 11.37 12.51 11.6 12.14 11.63L0.4 12.65C-0.48 12.72 -0.84 13.82 -0.17 14.4L8.74 22.12C9.02 22.37 9.14 22.74 9.06 23.1L6.39 34.59C6.19 35.45 7.12 36.13 7.88 35.67L17.98 29.59C18.3 29.4 18.69 29.4 19.01 29.59L29.11 35.67C29.87 36.13 30.8 35.45 30.6 34.59L27.93 23.1C27.85 22.74 27.97 22.37 28.25 22.12L37.16 14.4C37.83 13.82 37.47 12.72 36.59 12.65L24.85 11.63C24.48 11.6 24.15 11.37 24.01 11.03L19.42 0.17C19.07 -0.64 17.92 -0.64 17.57 0.17Z" fill="#B4B4B4" fill-opacity="1.000000" fill-rule="evenodd"/>
</svg>
