<svg width="63.000000" height="63.000000" viewBox="0 0 63 63" fill="none" xmlns="http://www.w3.org/2000/svg" xmlns:xlink="http://www.w3.org/1999/xlink">
	<desc>
			Created with Pixso.
	</desc>
	<defs/>
	<path id="background" d="M63 31.5C63 48.89 48.89 63 31.5 63C14.1 63 0 48.89 0 31.5C0 14.1 14.1 0 31.5 0C48.89 0 63 14.1 63 31.5Z" fill="#1C8ADB" fill-opacity="1.000000" fill-rule="evenodd"/>
	<path id="icon" d="M48.66 16.28L48 16.52L12.65 29.26C12.39 29.34 12.18 29.49 12.03 29.71C11.88 29.92 11.8 30.18 11.81 30.44C11.82 30.71 11.92 30.96 12.09 31.16C12.26 31.36 12.49 31.49 12.75 31.55L21.9 34.05L23.61 39.07L25.32 44.08C25.41 44.32 25.57 44.54 25.77 44.71C25.97 44.88 26.21 45 26.47 45.06C26.73 45.12 27 45.11 27.25 45.04C27.51 44.97 27.74 44.84 27.94 44.66L32.67 40.19L41.95 46.49C43.09 47.26 44.7 46.69 44.99 45.42L51.14 18.24C51.44 16.9 50.03 15.79 48.66 16.28ZM44.14 22.31L28.17 35.37L27.41 35.99C27.25 36.12 27.14 36.31 27.11 36.52L26.95 37.91L26.48 41.81C26.49 41.86 26.47 41.9 26.44 41.94C26.41 41.97 26.37 42 26.32 42C26.27 42 26.22 41.99 26.19 41.96C26.15 41.93 26.13 41.88 26.13 41.84L24.83 37.94L23.48 33.95C23.43 33.77 23.43 33.57 23.51 33.4C23.58 33.23 23.71 33.08 23.87 32.99L40.49 23.46L43.62 21.67C44.08 21.41 44.54 21.98 44.14 22.31Z" fill="#FFFFFF" fill-opacity="1.000000" fill-rule="nonzero"/>
</svg>
